<svg width="38" height="38" viewBox="0 0 38 38" fill="none" xmlns="http://www.w3.org/2000/svg">
<path d="M34.2 17.5455C33.7432 17.5487 33.2907 17.6347 32.8643 17.7994L28.3081 14.0518C28.4202 13.6433 28.5 13.2195 28.5 12.7727C28.5 10.1267 26.3834 8 23.75 8C21.1166 8 19 10.1267 19 12.7727C19 13.5287 19.19 14.2332 19.4978 14.867L13.9707 21.4305C13.7495 21.3888 13.5251 21.3665 13.3 21.3636C12.9599 21.3636 12.6388 21.4209 12.3272 21.5049L7.4575 16.6119C7.543 16.3007 7.6 15.9781 7.6 15.6364C7.6 13.5211 5.9052 11.8182 3.8 11.8182C1.6948 11.8182 0 13.5211 0 15.6364C0 17.7516 1.6948 19.4545 3.8 19.4545C4.1401 19.4545 4.4612 19.3973 4.7728 19.3133L9.6425 24.2063C9.55117 24.5235 9.50323 24.8516 9.5 25.1818C9.5 27.2971 11.1948 29 13.3 29C15.4052 29 17.1 27.2971 17.1 25.1818C17.1 24.7294 17.0088 24.3036 16.8663 23.9008L22.401 17.3297C22.8323 17.4557 23.2788 17.5455 23.75 17.5455C24.4998 17.5413 25.2378 17.3574 25.9027 17.009L30.4608 20.7565C30.425 20.957 30.4047 21.16 30.4 21.3636C30.4 23.4789 32.0948 25.1818 34.2 25.1818C36.3052 25.1818 38 23.4789 38 21.3636C38 19.2484 36.3052 17.5455 34.2 17.5455Z" fill="#1F1D1E"/>
</svg>
