<svg width="38" height="38" viewBox="0 0 38 38" fill="none" xmlns="http://www.w3.org/2000/svg">
<g clip-path="url(#clip0_45_189)">
<path d="M12.3217 26.9126C11.6796 26.2676 12.0144 26.4495 10.4657 26.0331C9.76297 25.8438 9.14526 25.4802 8.58666 25.0445L5.23432 33.3006C4.90995 34.0999 5.51584 34.9683 6.37443 34.9356L10.2676 34.7865L12.9454 37.6275C13.5365 38.2539 14.5739 38.0588 14.8982 37.2594L18.7442 27.7876C17.9432 28.2359 17.0543 28.4986 16.1351 28.4986C14.6943 28.4986 13.3407 27.9353 12.3217 26.9126V26.9126ZM33.4303 33.3006L30.078 25.0445C29.5194 25.4809 28.9017 25.8438 28.199 26.0331C26.6422 26.4517 26.9835 26.2691 26.3429 26.9126C25.324 27.9353 23.9696 28.4986 22.5288 28.4986C21.6096 28.4986 20.7207 28.2352 19.9197 27.7876L23.7657 37.2594C24.09 38.0588 25.1282 38.2539 25.7185 37.6275L28.397 34.7865L32.2902 34.9356C33.1488 34.9683 33.7547 34.0992 33.4303 33.3006V33.3006ZM24.5784 25.233C25.7075 24.0789 25.8368 24.1784 27.4446 23.7382C28.4709 23.457 29.2733 22.6368 29.5482 21.5874C30.1009 19.4796 29.9575 19.7341 31.4656 18.1919C32.2171 17.4237 32.5104 16.3038 32.2355 15.2543C31.6836 13.148 31.6829 13.4419 32.2355 11.3333C32.5104 10.2839 32.2171 9.16392 31.4656 8.39575C29.9575 6.85349 30.1009 7.10732 29.5482 5.00025C29.2733 3.95079 28.4709 3.13068 27.4446 2.84939C25.3846 2.28458 25.6328 2.43228 24.1233 0.88927C23.3718 0.121106 22.2761 -0.17948 21.2497 0.101809C19.1905 0.665872 19.4779 0.666614 17.4149 0.101809C16.3886 -0.17948 15.2928 0.120364 14.5414 0.88927C13.0333 2.43154 13.2816 2.28458 11.2208 2.84939C10.1945 3.13068 9.39205 3.95079 9.11718 5.00025C8.56523 7.10732 8.70784 6.85349 7.19977 8.39575C6.44832 9.16392 6.15424 10.2839 6.42984 11.3333C6.98179 13.4382 6.98253 13.1443 6.42984 15.2536C6.15498 16.303 6.44832 17.423 7.19977 18.1919C8.70784 19.7341 8.56449 19.4796 9.11718 21.5874C9.39205 22.6368 10.1945 23.457 11.2208 23.7382C12.8744 24.191 12.9978 24.1197 14.0862 25.233C15.0638 26.2327 16.5866 26.4116 17.7614 25.665C18.2312 25.3654 18.7762 25.2063 19.3327 25.2063C19.8892 25.2063 20.4341 25.3654 20.9039 25.665C22.078 26.4116 23.6009 26.2327 24.5784 25.233ZM12.3616 13.0582C12.3616 9.12235 15.4827 5.93169 19.3323 5.93169C23.1819 5.93169 26.303 9.12235 26.303 13.0582C26.303 16.994 23.1819 20.1847 19.3323 20.1847C15.4827 20.1847 12.3616 16.994 12.3616 13.0582V13.0582Z" fill="#1F1D1E"/>
</g>
<defs>
<clipPath id="clip0_45_189">
<rect width="38" height="38" fill="white"/>
</clipPath>
</defs>
</svg>
