<svg width="38" height="38" viewBox="0 0 38 38" fill="none" xmlns="http://www.w3.org/2000/svg">
<g clip-path="url(#clip0_45_192)">
<path d="M34.1114 9.91589H30.098V5.90244C30.098 5.19282 29.8161 4.51226 29.3143 4.01048C28.8125 3.5087 28.132 3.22681 27.4223 3.22681H11.3685C10.6589 3.22681 9.97837 3.5087 9.47659 4.01048C8.97481 4.51226 8.69291 5.19282 8.69291 5.90244V9.91589H4.67946C3.61503 9.91589 2.5942 10.3387 1.84153 11.0914C1.08886 11.8441 0.666016 12.8649 0.666016 13.9293V32.6588C0.666016 33.3684 0.947912 34.0489 1.44969 34.5507C1.95147 35.0525 2.63203 35.3344 3.34165 35.3344H35.4492C36.1589 35.3344 36.8394 35.0525 37.3412 34.5507C37.843 34.0489 38.1249 33.3684 38.1249 32.6588V13.9293C38.1249 12.8649 37.702 11.8441 36.9494 11.0914C36.1967 10.3387 35.1759 9.91589 34.1114 9.91589ZM11.3685 5.90244H27.4223V9.91589H11.3685V5.90244ZM35.4492 32.6588H3.34165V20.6184H14.0442V27.3075H24.7467V20.6184H35.4492V32.6588ZM16.7198 20.6184H22.0711V24.6319H16.7198V20.6184ZM3.34165 17.9428V13.9293C3.34165 13.5745 3.4826 13.2342 3.73349 12.9834C3.98438 12.7325 4.32465 12.5915 4.67946 12.5915H34.1114C34.4662 12.5915 34.8065 12.7325 35.0574 12.9834C35.3083 13.2342 35.4492 13.5745 35.4492 13.9293V17.9428H3.34165Z" fill="#1F1D1E"/>
</g>
<defs>
<clipPath id="clip0_45_192">
<rect width="38" height="38" fill="white"/>
</clipPath>
</defs>
</svg>
