<svg width="38" height="38" viewBox="0 0 38 38" fill="none" xmlns="http://www.w3.org/2000/svg">
<g clip-path="url(#clip0_45_178)">
<path d="M19.2699 18.0518C22.6774 18.0518 25.3276 15.2846 25.3276 11.8886C25.3276 8.49251 22.5512 5.85114 19.1437 5.85114C15.7362 5.85114 13.0859 8.61829 13.0859 11.8886C13.0859 15.2846 15.8624 18.0518 19.2699 18.0518ZM19.1437 8.36673C19.2699 8.36673 19.2699 8.36673 19.1437 8.36673C21.1629 8.36673 22.8036 10.0019 22.8036 12.0144C22.8036 14.0268 21.1629 15.5362 19.1437 15.5362C17.1244 15.5362 15.61 13.9011 15.61 12.0144C15.61 10.0019 17.2506 8.36673 19.1437 8.36673V8.36673Z" fill="#1F1D1E"/>
<path d="M37.9475 17.2969C35.5496 15.1586 32.3945 14.0266 29.1132 14.1524H28.1036C27.8512 15.1586 27.4726 16.0391 26.9678 16.7938C27.725 16.668 28.356 16.668 29.1132 16.668C31.5111 16.5422 33.909 17.2969 35.802 18.6805V27.7366H38.3261V17.6742L37.9475 17.2969Z" fill="#1F1D1E"/>
<path d="M26.2112 6.10231C26.8422 4.59295 28.609 3.83827 30.2497 4.46717C31.7641 5.09607 32.5213 6.85699 31.8903 8.49213C31.3855 9.62415 30.2497 10.3788 29.1139 10.3788C28.8614 10.3788 28.4828 10.3788 28.2304 10.253C28.3566 10.8819 28.3566 11.5108 28.3566 12.014V12.7686C28.609 12.7686 28.8614 12.8944 29.1139 12.8944C32.2689 12.8944 34.793 10.3788 34.793 7.36011C34.793 4.21561 32.2689 1.70001 29.2401 1.70001C27.2208 1.70001 25.454 2.70625 24.4443 4.46717C25.0754 4.84451 25.7064 5.34763 26.2112 6.10231V6.10231Z" fill="#1F1D1E"/>
<path d="M11.8241 16.9197C11.3193 16.165 10.9407 15.2845 10.6883 14.2783H9.67865C6.39737 14.1525 3.24229 15.2845 0.84443 17.297L0.46582 17.6743V27.7367H2.98988V18.6806C5.00913 17.297 7.28079 16.5423 9.67865 16.6681C10.4359 16.6681 11.1931 16.7939 11.8241 16.9197Z" fill="#1F1D1E"/>
<path d="M9.67832 12.7691C9.93073 12.7691 10.1831 12.7691 10.4355 12.6433V11.8886C10.4355 11.2597 10.4355 10.6308 10.5617 10.1277C10.3093 10.2535 9.93073 10.2535 9.67832 10.2535C8.03768 10.2535 6.64945 8.86992 6.64945 7.23478C6.64945 5.59964 8.03768 4.21606 9.67832 4.21606C10.9404 4.21606 12.0762 4.97074 12.581 6.10276C13.0858 5.47386 13.843 4.84496 14.474 4.34184C12.8334 1.70047 9.42592 0.820006 6.77565 2.45515C4.12539 4.09028 3.24196 7.48634 4.8826 10.1277C5.89223 11.7629 7.65907 12.7691 9.67832 12.7691V12.7691Z" fill="#1F1D1E"/>
<path d="M29.6185 24.8437L29.3661 24.4664C26.842 21.6992 23.3084 20.0641 19.5223 20.1899C15.7362 20.0641 12.0763 21.6992 9.55221 24.4664L9.2998 24.8437V34.403C9.2998 35.535 10.1832 36.5413 11.4453 36.5413H27.5993C28.7351 36.5413 29.7447 35.535 29.7447 34.403V24.8437H29.6185ZM27.0945 34.0257H11.8239V25.7242C13.8431 23.7117 16.6196 22.7055 19.5223 22.7055C22.2987 22.5797 25.0752 23.7117 27.0945 25.7242V34.0257Z" fill="#1F1D1E"/>
</g>
<defs>
<clipPath id="clip0_45_178">
<rect width="38" height="38" fill="white"/>
</clipPath>
</defs>
</svg>
