<svg width="52" height="52" viewBox="0 0 52 52" fill="none" xmlns="http://www.w3.org/2000/svg">
<path d="M10.8333 21.3644C14.9855 30.4079 22.3738 37.5979 31.5595 41.4958L33.0319 42.1518C36.4007 43.6528 40.3608 42.5125 42.4156 39.4499L44.3397 36.5818C44.9653 35.6494 44.7749 34.3934 43.9009 33.6884L37.3753 28.4238C36.4168 27.6506 35.0073 27.8307 34.2741 28.8201L32.2553 31.5442C27.0752 28.9889 22.8696 24.7833 20.3144 19.6032L23.0384 17.5845C24.0279 16.8513 24.208 15.4418 23.4347 14.4833L18.17 7.95745C17.4651 7.08367 16.2095 6.89308 15.277 7.51831L12.3892 9.45465C9.30746 11.521 8.17347 15.5139 9.70905 18.8916L10.8316 21.3607L10.8333 21.3644Z" fill="black"/>
</svg>
