<svg width="52" height="52" viewBox="0 0 52 52" fill="none" xmlns="http://www.w3.org/2000/svg">
<path d="M18.9583 21.6667C18.9583 17.7777 22.111 14.625 26 14.625C29.889 14.625 33.0417 17.7777 33.0417 21.6667C33.0417 25.5557 29.889 28.7083 26 28.7083C22.111 28.7083 18.9583 25.5557 18.9583 21.6667Z" fill="#EF4E79"/>
<path fill-rule="evenodd" clip-rule="evenodd" d="M8.17601 19.2343C8.92056 10.2016 16.4688 3.25 25.5321 3.25H26.468C35.5313 3.25 43.0795 10.2016 43.8241 19.2343C44.225 24.0976 42.7227 28.9267 39.6338 32.7044L29.2488 45.4049C27.5697 47.4584 24.4304 47.4584 22.7513 45.4049L12.3663 32.7044C9.27738 28.9267 7.77514 24.0976 8.17601 19.2343ZM26 11.375C20.3161 11.375 15.7083 15.9827 15.7083 21.6667C15.7083 27.3506 20.3161 31.9583 26 31.9583C31.6839 31.9583 36.2917 27.3506 36.2917 21.6667C36.2917 15.9827 31.6839 11.375 26 11.375Z" fill="#EF4E79"/>
</svg>
