<svg width="52" height="52" viewBox="0 0 52 52" fill="none" xmlns="http://www.w3.org/2000/svg">
<path d="M46.0258 26.947C46.3697 26.7559 46.583 26.3934 46.583 26C46.583 25.6066 46.3697 25.2441 46.0258 25.053L41.0807 22.3058C31.3383 16.8933 21.0682 12.4906 10.4305 9.1663L8.98947 8.71599C8.66053 8.61319 8.30231 8.67304 8.02465 8.87717C7.74698 9.08131 7.58301 9.40538 7.58301 9.75001V22.2083C7.58301 22.7845 8.03402 23.2599 8.6094 23.2902L10.797 23.4053C16.1304 23.686 21.4314 24.4094 26.6451 25.568L27.1614 25.6827C27.2763 25.7083 27.3261 25.7552 27.3537 25.7925C27.3887 25.8396 27.4159 25.912 27.4159 26C27.4159 26.088 27.3887 26.1605 27.3537 26.2075C27.3261 26.2448 27.2763 26.2917 27.1614 26.3173L26.6451 26.432C21.4314 27.5906 16.1304 28.314 10.7969 28.5947L8.6094 28.7098C8.03402 28.7401 7.58301 29.2155 7.58301 29.7917V42.25C7.58301 42.5946 7.74698 42.9187 8.02464 43.1228C8.3023 43.327 8.66053 43.3868 8.98947 43.284L10.4305 42.8337C21.0682 39.5094 31.3382 35.1068 41.0807 29.6943L46.0258 26.947Z" fill="black"/>
</svg>
