<svg width="16" height="16" viewBox="0 0 16 16" fill="none" xmlns="http://www.w3.org/2000/svg">
<path d="M14.5398 4.15149C14.5785 4.09764 14.5214 4.02812 14.4596 4.05207C14.0205 4.22229 13.5615 4.33713 13.0934 4.39373C13.6146 4.08232 14.0169 3.60826 14.2399 3.04702C14.2627 2.98985 14.2002 2.93879 14.1464 2.96853C13.6619 3.23609 13.1394 3.42875 12.5966 3.53971C12.5739 3.54436 12.5505 3.53662 12.5345 3.51979C12.1272 3.09001 11.5911 2.80385 11.0066 2.70497C10.4098 2.604 9.79638 2.70397 9.26255 2.98919C8.72871 3.27441 8.30464 3.72875 8.05685 4.28096C7.82124 4.80599 7.75766 5.39127 7.87387 5.95335C7.88289 5.99697 7.84875 6.03814 7.8043 6.03538C6.74826 5.96979 5.71646 5.6889 4.77246 5.20964C3.83085 4.73159 2.99703 4.06655 2.32178 3.25553C2.29181 3.21953 2.23501 3.22419 2.21318 3.26563C2.00306 3.66434 1.89305 4.10873 1.89335 4.5604C1.8925 5.00999 2.00283 5.45281 2.21452 5.84944C2.42621 6.24607 2.7327 6.5842 3.10669 6.83373C2.71007 6.82294 2.32118 6.72489 1.96752 6.54711C1.92194 6.5242 1.86727 6.55682 1.86964 6.60778C1.89722 7.2006 2.11485 7.79576 2.49156 8.25237C2.89244 8.73829 3.44886 9.07083 4.06669 9.19373C3.82886 9.26611 3.58194 9.30427 3.33335 9.30706C3.19806 9.30548 3.06303 9.2955 2.92904 9.27718C2.87936 9.27039 2.8388 9.31758 2.85619 9.36461C3.04047 9.86294 3.36602 10.2978 3.79407 10.6152C4.2517 10.9545 4.80374 11.1428 5.37335 11.1537C4.41149 11.9106 3.22394 12.3236 2.00002 12.3271C1.87426 12.3275 1.74855 12.3234 1.62314 12.3149C1.55247 12.31 1.51996 12.4042 1.58088 12.4403C2.77339 13.148 4.13641 13.5221 5.52669 13.5204C6.55315 13.5311 7.57144 13.3371 8.5221 12.9498C9.47275 12.5625 10.3367 11.9897 11.0635 11.2647C11.7903 10.5398 12.3653 9.67732 12.7551 8.72767C13.1448 7.77801 13.3414 6.76022 13.3334 5.73373V5.41384C13.3334 5.3928 13.3433 5.373 13.3601 5.36032C13.8123 5.01889 14.21 4.61127 14.5398 4.15149Z" fill="#BFBEBE"/>
</svg>
