<svg width="16" height="16" viewBox="0 0 16 16" fill="none" xmlns="http://www.w3.org/2000/svg">
<path d="M9.46634 1.91666C8.64859 1.91666 7.86433 2.24151 7.2861 2.81975C6.70786 3.39799 6.38301 4.18225 6.38301 5V6.71666H4.73301C4.65016 6.71666 4.58301 6.78382 4.58301 6.86666V9.13333C4.58301 9.21617 4.65017 9.28333 4.73301 9.28333H6.38301V13.9333C6.38301 14.0162 6.45017 14.0833 6.53301 14.0833H8.79967C8.88252 14.0833 8.94967 14.0162 8.94967 13.9333V9.28333H10.6143C10.6831 9.28333 10.7431 9.23649 10.7598 9.16971L11.3265 6.90304C11.3501 6.80837 11.2785 6.71666 11.181 6.71666H8.94967V5C8.94967 4.86297 9.00411 4.73155 9.101 4.63466C9.1979 4.53777 9.32931 4.48333 9.46634 4.48333H11.1997C11.2825 4.48333 11.3497 4.41617 11.3497 4.33333V2.06666C11.3497 1.98382 11.2825 1.91666 11.1997 1.91666H9.46634Z" fill="#BFBEBE"/>
</svg>
