<svg width="38" height="38" viewBox="0 0 38 38" fill="none" xmlns="http://www.w3.org/2000/svg">
<path fill-rule="evenodd" clip-rule="evenodd" d="M13.2683 11.3905C14.7911 9.02458 17.449 7.45483 20.4755 7.45483C25.0363 7.45483 28.7645 11.0196 29.0258 15.5149C29.1262 15.5107 29.2271 15.5085 29.3284 15.5085C33.2438 15.5085 36.4179 18.6826 36.4179 22.598C36.4179 26.5134 33.2438 29.6875 29.3284 29.6875H10.8848C5.747 29.6875 1.58203 25.5225 1.58203 20.3848C1.58203 15.247 5.747 11.0821 10.8848 11.0821C11.7075 11.0821 12.5067 11.1892 13.2683 11.3905ZM23.798 18.2564C24.2617 17.7926 24.2617 17.0407 23.798 16.577C23.3342 16.1132 22.5823 16.1132 22.1186 16.577L17.4166 21.279L15.0896 18.952C14.6259 18.4882 13.874 18.4882 13.4103 18.952C12.9465 19.4157 12.9465 20.1676 13.4103 20.6314L16.5769 23.798C17.0407 24.2618 17.7926 24.2618 18.2563 23.798L23.798 18.2564Z" fill="#1F1D1E"/>
</svg>
