<svg width="38" height="38" viewBox="0 0 38 38" fill="none" xmlns="http://www.w3.org/2000/svg">
<path d="M11.4791 12.0333C11.4791 13.5636 12.7196 14.8041 14.2499 14.8041H23.7499C25.2802 14.8041 26.5208 13.5636 26.5208 12.0333V6.77075C26.5208 6.52916 26.7166 6.33331 26.9582 6.33331C27.1892 6.33331 27.4087 6.43422 27.5591 6.60958L32.25 12.0787C32.9001 12.8367 33.2397 13.8124 33.2007 14.8103L32.6598 28.6545C32.5768 30.7789 30.8305 32.4583 28.7045 32.4583H28.1041C27.6669 32.4583 27.3124 32.1039 27.3124 31.6666V23.75C27.3124 22.2197 26.0719 20.9791 24.5416 20.9791H13.4583C11.928 20.9791 10.6874 22.2197 10.6874 23.75V31.6666C10.6874 32.1039 10.333 32.4583 9.89576 32.4583H9.67869C7.77264 32.4583 6.16346 31.042 5.92142 29.1514C5.13938 23.0428 5.10569 16.8617 5.8211 10.745L5.9175 9.92074C6.15672 7.8754 7.88968 6.33331 9.94897 6.33331H10.6874C11.1246 6.33331 11.4791 6.68775 11.4791 7.12498V12.0333Z" fill="#1F1D1E"/>
<path d="M13.0624 31.6666C13.0624 32.1039 13.4169 32.4583 13.8541 32.4583H24.1458C24.583 32.4583 24.9374 32.1039 24.9374 31.6666V23.75C24.9374 23.5314 24.7602 23.3541 24.5416 23.3541H13.4583C13.2396 23.3541 13.0624 23.5314 13.0624 23.75V31.6666Z" fill="#1F1D1E"/>
<path d="M24.1458 7.12498C24.1458 6.68775 23.7913 6.33331 23.3541 6.33331H14.6458C14.2085 6.33331 13.8541 6.68775 13.8541 7.12498V12.0333C13.8541 12.2519 14.0313 12.4291 14.2499 12.4291H23.7499C23.9685 12.4291 24.1458 12.2519 24.1458 12.0333V7.12498Z" fill="#1F1D1E"/>
</svg>
