<svg width="38" height="38" viewBox="0 0 38 38" fill="none" xmlns="http://www.w3.org/2000/svg">
<path fill-rule="evenodd" clip-rule="evenodd" d="M30.083 34.0417H9.49967C6.4391 34.0417 3.95801 31.5606 3.95801 28.5V7.82672C3.95801 6.13643 5.62975 5.06483 7.10076 5.57554C7.31091 5.6485 7.51696 5.75375 7.71345 5.8941L7.99061 6.09207C9.36498 7.07376 11.2238 7.06942 12.602 6.08496C14.5289 4.70866 17.1372 4.70866 19.064 6.08496C20.4422 7.06942 22.301 7.07376 23.6754 6.09207L23.9526 5.8941C25.5245 4.77129 27.708 5.89496 27.708 7.82672V19.7917H33.2497C33.9055 19.7917 34.4372 20.3233 34.4372 20.9792V29.6875C34.4372 32.0922 32.4877 34.0417 30.083 34.0417ZM28.1038 22.1667V29.6875C28.1038 30.7806 28.9899 31.6667 30.083 31.6667C31.1761 31.6667 32.0622 30.7806 32.0622 29.6875V22.1667H28.1038ZM21.3747 15.4375C21.3747 14.7817 20.843 14.25 20.1872 14.25H10.6872C10.0313 14.25 9.49967 14.7817 9.49967 15.4375C9.49967 16.0933 10.0313 16.625 10.6872 16.625H20.1872C20.843 16.625 21.3747 16.0933 21.3747 15.4375ZM19.7913 20.1875C19.7913 19.5317 19.2597 19 18.6038 19H10.6872C10.0313 19 9.49967 19.5317 9.49967 20.1875C9.49967 20.8433 10.0313 21.375 10.6872 21.375H18.6038C19.2597 21.375 19.7913 20.8433 19.7913 20.1875ZM20.1872 23.75C20.843 23.75 21.3747 24.2817 21.3747 24.9375C21.3747 25.5933 20.843 26.125 20.1872 26.125H10.6872C10.0313 26.125 9.49967 25.5933 9.49967 24.9375C9.49967 24.2817 10.0313 23.75 10.6872 23.75H20.1872Z" fill="#1F1D1E"/>
</svg>
