<svg width="16" height="16" viewBox="0 0 16 16" fill="none" xmlns="http://www.w3.org/2000/svg">
<path d="M8.00012 5.83333C6.80351 5.83333 5.83346 6.80338 5.83346 8C5.83346 9.19662 6.80351 10.1667 8.00012 10.1667C9.19674 10.1667 10.1668 9.19662 10.1668 8C10.1668 6.80338 9.19674 5.83333 8.00012 5.83333Z" fill="#A16BD7"/>
<path fill-rule="evenodd" clip-rule="evenodd" d="M4.51315 2.05431C6.81189 1.79739 9.18837 1.79739 11.4871 2.05431C12.7527 2.19576 13.7735 3.19295 13.922 4.46298C14.1969 6.81299 14.1969 9.18702 13.922 11.537C13.7735 12.8071 12.7527 13.8042 11.4871 13.9457C9.18837 14.2026 6.8119 14.2026 4.51315 13.9457C3.24755 13.8042 2.22675 12.8071 2.07821 11.537C1.80336 9.18702 1.80336 6.81299 2.07821 4.46298C2.22675 3.19295 3.24755 2.19576 4.51315 2.05431ZM11.3335 4C10.9653 4 10.6668 4.29848 10.6668 4.66667C10.6668 5.03486 10.9653 5.33333 11.3335 5.33333C11.7016 5.33333 12.0001 5.03486 12.0001 4.66667C12.0001 4.29848 11.7016 4 11.3335 4ZM4.83346 8C4.83346 6.2511 6.25122 4.83333 8.00012 4.83333C9.74902 4.83333 11.1668 6.2511 11.1668 8C11.1668 9.7489 9.74902 11.1667 8.00012 11.1667C6.25122 11.1667 4.83346 9.7489 4.83346 8Z" fill="#A16BD7"/>
</svg>
