<svg width="16" height="16" viewBox="0 0 16 16" fill="none" xmlns="http://www.w3.org/2000/svg">
<path fill-rule="evenodd" clip-rule="evenodd" d="M4.65901 3.26035C6.88279 3.08637 9.11676 3.08637 11.3405 3.26035L12.8343 3.37721C13.6664 3.44231 14.3471 4.06591 14.4846 4.88909C14.8287 6.94875 14.8287 9.05125 14.4846 11.1109C14.3471 11.9341 13.6664 12.5577 12.8343 12.6228L11.3405 12.7397C9.11676 12.9136 6.88279 12.9136 4.65901 12.7397L3.16521 12.6228C2.33316 12.5577 1.65248 11.9341 1.51494 11.1109C1.1708 9.05125 1.1708 6.94875 1.51494 4.88909C1.65248 4.06591 2.33316 3.44231 3.16521 3.37721L4.65901 3.26035ZM6.66642 9.64676V6.35324C6.66642 6.19778 6.83602 6.10176 6.96932 6.18174L9.71392 7.8285C9.84339 7.90618 9.84339 8.09382 9.71392 8.1715L6.96932 9.81826C6.83602 9.89824 6.66642 9.80222 6.66642 9.64676Z" fill="#D76B72"/>
</svg>
