<svg width="16" height="16" viewBox="0 0 16 16" fill="none" xmlns="http://www.w3.org/2000/svg">
<path d="M8.00012 5.83334C6.80351 5.83334 5.83346 6.80339 5.83346 8.00001C5.83346 9.19663 6.80351 10.1667 8.00012 10.1667C9.19674 10.1667 10.1668 9.19663 10.1668 8.00001C10.1668 6.80339 9.19674 5.83334 8.00012 5.83334Z" fill="#343641"/>
<path fill-rule="evenodd" clip-rule="evenodd" d="M4.51315 2.05432C6.81189 1.7974 9.18837 1.7974 11.4871 2.05432C12.7527 2.19577 13.7735 3.19296 13.922 4.46299C14.1969 6.81299 14.1969 9.18703 13.922 11.537C13.7735 12.8071 12.7527 13.8042 11.4871 13.9457C9.18837 14.2026 6.8119 14.2026 4.51315 13.9457C3.24755 13.8042 2.22675 12.8071 2.07821 11.537C1.80336 9.18702 1.80336 6.813 2.07821 4.46299C2.22675 3.19296 3.24755 2.19577 4.51315 2.05432ZM11.3335 4.00001C10.9653 4.00001 10.6668 4.29849 10.6668 4.66668C10.6668 5.03487 10.9653 5.33334 11.3335 5.33334C11.7016 5.33334 12.0001 5.03487 12.0001 4.66668C12.0001 4.29849 11.7016 4.00001 11.3335 4.00001ZM4.83346 8.00001C4.83346 6.25111 6.25122 4.83334 8.00012 4.83334C9.74902 4.83334 11.1668 6.25111 11.1668 8.00001C11.1668 9.74891 9.74902 11.1667 8.00012 11.1667C6.25122 11.1667 4.83346 9.74891 4.83346 8.00001Z" fill="#343641"/>
</svg>
