<svg width="16" height="16" viewBox="0 0 16 16" fill="none" xmlns="http://www.w3.org/2000/svg">
<path d="M14.5398 4.15148C14.5785 4.09763 14.5214 4.02811 14.4596 4.05206C14.0205 4.22228 13.5615 4.33713 13.0934 4.39372C13.6146 4.08231 14.0169 3.60826 14.2399 3.04701C14.2627 2.98984 14.2002 2.93878 14.1464 2.96852C13.6619 3.23608 13.1394 3.42875 12.5966 3.53971C12.5739 3.54435 12.5505 3.53661 12.5345 3.51978C12.1272 3.09 11.5911 2.80384 11.0066 2.70496C10.4098 2.60399 9.79638 2.70396 9.26255 2.98918C8.72871 3.2744 8.30464 3.72874 8.05685 4.28095C7.82124 4.80599 7.75766 5.39126 7.87387 5.95335C7.88289 5.99696 7.84875 6.03813 7.8043 6.03537C6.74826 5.96978 5.71646 5.6889 4.77246 5.20963C3.83085 4.73158 2.99703 4.06654 2.32178 3.25552C2.29181 3.21953 2.23501 3.22419 2.21318 3.26562C2.00306 3.66433 1.89305 4.10873 1.89335 4.56039C1.8925 5.00998 2.00283 5.4528 2.21452 5.84943C2.42621 6.24606 2.7327 6.5842 3.10669 6.83372C2.71007 6.82293 2.32118 6.72488 1.96752 6.54711C1.92194 6.52419 1.86727 6.55682 1.86964 6.60777C1.89722 7.2006 2.11485 7.79575 2.49156 8.25237C2.89244 8.73828 3.44886 9.07082 4.06669 9.19372C3.82886 9.2661 3.58194 9.30426 3.33335 9.30706C3.19806 9.30548 3.06303 9.29549 2.92904 9.27717C2.87936 9.27038 2.8388 9.31757 2.85619 9.3646C3.04047 9.86293 3.36602 10.2978 3.79407 10.6152C4.2517 10.9545 4.80374 11.1428 5.37335 11.1537C4.41149 11.9106 3.22394 12.3236 2.00002 12.3271C1.87426 12.3275 1.74855 12.3234 1.62314 12.3148C1.55247 12.31 1.51996 12.4042 1.58088 12.4403C2.77339 13.148 4.13641 13.5221 5.52669 13.5204C6.55315 13.531 7.57144 13.3371 8.5221 12.9498C9.47275 12.5625 10.3367 11.9896 11.0635 11.2647C11.7903 10.5398 12.3653 9.67732 12.7551 8.72766C13.1448 7.778 13.3414 6.76021 13.3334 5.73372V5.41384C13.3334 5.39279 13.3433 5.373 13.3601 5.36031C13.8123 5.01889 14.21 4.61126 14.5398 4.15148Z" fill="#343641"/>
</svg>
