<svg width="16" height="16" viewBox="0 0 16 16" fill="none" xmlns="http://www.w3.org/2000/svg">
<path fill-rule="evenodd" clip-rule="evenodd" d="M4.65901 3.26034C6.88279 3.08636 9.11676 3.08636 11.3405 3.26034L12.8343 3.3772C13.6664 3.4423 14.3471 4.0659 14.4846 4.88908C14.8287 6.94874 14.8287 9.05124 14.4846 11.1109C14.3471 11.9341 13.6664 12.5577 12.8343 12.6228L11.3405 12.7396C9.11676 12.9136 6.88279 12.9136 4.65901 12.7396L3.16521 12.6228C2.33316 12.5577 1.65248 11.9341 1.51494 11.1109C1.1708 9.05124 1.1708 6.94874 1.51494 4.88908C1.65248 4.0659 2.33316 3.4423 3.16521 3.3772L4.65901 3.26034ZM6.66642 9.64675V6.35323C6.66642 6.19777 6.83602 6.10175 6.96932 6.18173L9.71392 7.82849C9.84339 7.90617 9.84339 8.09381 9.71392 8.17149L6.96932 9.81825C6.83602 9.89823 6.66642 9.80221 6.66642 9.64675Z" fill="#343641"/>
</svg>
