<svg width="100" height="17" viewBox="0 0 100 17" fill="none" xmlns="http://www.w3.org/2000/svg">
<path d="M3.64062 14.7578C3.54688 15.6953 3.03125 16.2031 2.09375 16.2812C1.65625 16.2812 1.27344 16.1406 0.945312 15.8594C0.632812 15.5625 0.476562 15.1953 0.476562 14.7578V3.64844C0.492188 3.21094 0.65625 2.85156 0.96875 2.57031C1.28125 2.27344 1.65625 2.125 2.09375 2.125H3.24219H6.125H11.9141C12.0078 2.125 12.1016 2.13281 12.1953 2.14844H12.3359C13.4297 2.17969 14.3281 2.42969 15.0312 2.89844C15.7344 3.36719 16.2422 3.90625 16.5547 4.51562C16.8672 5.10938 17.0234 5.71094 17.0234 6.32031C17.0234 6.94531 16.8672 7.5625 16.5547 8.17188C16.2578 8.76562 15.75 9.29688 15.0312 9.76562C14.3281 10.2344 13.4297 10.4844 12.3359 10.5156H8.21094C8.33594 11.2969 8.59375 11.875 8.98438 12.25C9.35938 12.625 9.83594 12.8125 10.4141 12.8125H15.4766C15.9141 12.8281 16.2734 12.9922 16.5547 13.3047C16.8516 13.6172 17 13.9922 17 14.4297C16.9844 14.8516 16.8281 15.2109 16.5312 15.5078C16.25 15.7891 15.8984 15.9375 15.4766 15.9531H9.99219C8.83594 15.9688 7.78906 15.5156 6.85156 14.5938C5.91406 13.6719 5.34375 12.5781 5.14062 11.3125C4.85938 9.90625 4.71875 9.11719 4.71875 8.94531C4.71875 8.50781 4.86719 8.14062 5.16406 7.84375C5.47656 7.53125 5.85156 7.375 6.28906 7.375H12.4766C12.7734 7.35938 13.0156 7.29688 13.2031 7.1875C13.4062 7.0625 13.5547 6.92969 13.6484 6.78906C13.7422 6.63281 13.7891 6.47656 13.7891 6.32031C13.7891 6.16406 13.7422 6.01562 13.6484 5.875C13.5547 5.71875 13.4062 5.58594 13.2031 5.47656C13.0156 5.35156 12.7734 5.28125 12.4766 5.26562H6.125H4.25C3.84375 5.28125 3.64062 5.48438 3.64062 5.875V14.7578ZM24.4594 15.9531C23.0844 15.9062 22.0453 15.5859 21.3422 14.9922C20.6391 14.3828 20.1313 13.7031 19.8188 12.9531C19.5063 12.1875 19.35 11.4141 19.35 10.6328C19.35 9.82031 19.4984 9.03906 19.7953 8.28906C20.1078 7.52344 20.6156 6.84375 21.3188 6.25C22.0375 5.64062 22.9438 5.32812 24.0375 5.3125H32.9438C33.3813 5.3125 33.7484 5.46094 34.0453 5.75781C34.3578 6.03906 34.5141 6.38281 34.5141 6.78906C34.5141 7.21094 34.3578 7.57031 34.0453 7.86719C33.7484 8.14844 33.3813 8.28906 32.9438 8.28906H24.1781C23.8344 8.28906 23.5297 8.40625 23.2641 8.64062C23.0141 8.875 22.8266 9.17969 22.7016 9.55469C22.5922 9.92969 22.5375 10.2969 22.5375 10.6562C22.5375 11.0469 22.5922 11.4297 22.7016 11.8047C22.8266 12.1797 23.0141 12.4844 23.2641 12.7188C23.5297 12.9375 23.8344 13.0547 24.1781 13.0703H32.9438C33.3813 13.0703 33.7484 13.2109 34.0453 13.4922C34.3578 13.7734 34.5141 14.1094 34.5141 14.5C34.5141 14.9062 34.3578 15.25 34.0453 15.5312C33.7484 15.8125 33.3813 15.9531 32.9438 15.9531H24.4594ZM34.2328 10.5859C34.2328 10.8828 34.1 11.1406 33.8344 11.3594C33.6 11.5625 33.3031 11.6641 32.9438 11.6641H25.2797C24.9203 11.6641 24.6156 11.5625 24.3656 11.3594C24.1156 11.1406 23.9906 10.8828 23.9906 10.5859C23.9906 10.3047 24.1156 10.0547 24.3656 9.83594C24.6156 9.63281 24.9203 9.53125 25.2797 9.53125H32.9438C33.3031 9.53125 33.6078 9.64062 33.8578 9.85938C34.1078 10.0625 34.2328 10.3047 34.2328 10.5859ZM38.9266 1.75C39.3484 1.76562 39.7078 1.92188 40.0047 2.21875C40.3016 2.5 40.4578 2.85156 40.4734 3.27344V14.7578C40.3797 15.6953 39.8641 16.2031 38.9266 16.2812C38.4891 16.2812 38.1063 16.1406 37.7781 15.8594C37.4656 15.5625 37.3094 15.1953 37.3094 14.7578V3.27344C37.325 2.83594 37.4891 2.47656 37.8016 2.19531C38.1141 1.89844 38.4891 1.75 38.9266 1.75ZM47.2531 14.7109C46.4562 13.6328 45.6594 12.2188 44.8625 10.4688L43.3391 7.1875C43.2609 7.01562 43.2141 6.82812 43.1984 6.625C43.1672 6.1875 43.3 5.8125 43.5969 5.5C43.8937 5.1875 44.2844 5.03125 44.7687 5.03125C45.3 5.03125 45.6906 5.14062 45.9406 5.35938C46.2062 5.5625 46.4172 5.82812 46.5734 6.15625L47.675 8.875C47.9562 9.51562 48.2297 10.125 48.4953 10.7031C48.7766 11.2656 49.0891 11.7812 49.4328 12.25C49.7922 12.7188 50.1906 12.9688 50.6281 13C51.05 12.9688 51.4484 12.7188 51.8234 12.25C52.1516 11.7812 52.4484 11.2656 52.7141 10.7031C52.9953 10.125 53.2766 9.51562 53.5578 8.875L54.6594 6.15625C54.8156 5.82812 55.0187 5.5625 55.2687 5.35938C55.5344 5.14062 55.9328 5.03125 56.4641 5.03125C56.9484 5.03125 57.3391 5.1875 57.6359 5.5C57.9328 5.8125 58.0656 6.1875 58.0344 6.625C58.0187 6.82812 57.9719 7.01562 57.8937 7.1875L56.3703 10.4688C55.5734 12.2188 54.7766 13.6328 53.9797 14.7109C53.2141 15.7734 52.0969 16.3125 50.6281 16.3281C49.1437 16.3125 48.0187 15.7734 47.2531 14.7109ZM62.3531 5.07812C62.775 5.09375 63.1344 5.25 63.4313 5.54688C63.7281 5.82812 63.8844 6.17969 63.9 6.60156V14.7109C63.8063 15.6484 63.2906 16.1562 62.3531 16.2344C61.9156 16.2344 61.5328 16.0938 61.2047 15.8125C60.8922 15.5156 60.7359 15.1484 60.7359 14.7109V6.60156C60.7516 6.16406 60.9156 5.80469 61.2281 5.52344C61.5406 5.22656 61.9156 5.07812 62.3531 5.07812ZM60.3844 2.03125C60.3844 1.59375 60.5719 1.21875 60.9469 0.90625C61.3219 0.59375 61.775 0.4375 62.3063 0.4375C62.8375 0.4375 63.2906 0.59375 63.6656 0.90625C64.0406 1.21875 64.2281 1.59375 64.2281 2.03125C64.2281 2.48438 64.0406 2.86719 63.6656 3.17969C63.2906 3.49219 62.8375 3.64844 62.3063 3.64844C61.775 3.64844 61.3219 3.49219 60.9469 3.17969C60.5719 2.86719 60.3844 2.48438 60.3844 2.03125ZM81.7422 6.67188C81.7422 7.0625 81.5859 7.39062 81.2734 7.65625C80.9766 7.90625 80.6094 8.03125 80.1719 8.03125H70.2578C70.0547 8.03125 69.8906 8.07031 69.7656 8.14844C69.6406 8.22656 69.5469 8.3125 69.4844 8.40625C69.4219 8.48438 69.3906 8.55469 69.3906 8.61719C69.3906 8.69531 69.4219 8.78125 69.4844 8.875C69.5469 8.95312 69.6406 9.03125 69.7656 9.10938C69.8906 9.17188 70.0547 9.21094 70.2578 9.22656H77.9219C78.9062 9.24219 79.7188 9.4375 80.3594 9.8125C81 10.1719 81.4531 10.6016 81.7188 11.1016C82 11.5859 82.1406 12.0781 82.1406 12.5781C82.1406 13.0625 82 13.5547 81.7188 14.0547C81.4375 14.5391 80.9766 14.9688 80.3359 15.3438C79.7109 15.7031 78.9062 15.8828 77.9219 15.8828C77.75 15.8984 77.625 15.9062 77.5469 15.9062H68.4531C68.0156 15.9062 67.6406 15.7812 67.3281 15.5312C67.0312 15.2656 66.8828 14.9453 66.8828 14.5703C66.8828 14.1797 67.0391 13.8516 67.3516 13.5859C67.6484 13.3359 68.0156 13.2109 68.4531 13.2109H78.1094C78.3438 13.2266 78.5312 13.1953 78.6719 13.1172C78.8281 13.0391 78.9453 12.9531 79.0234 12.8594C79.1016 12.7656 79.1406 12.6719 79.1406 12.5781C79.1406 12.5312 79.1016 12.4531 79.0234 12.3438C78.9453 12.2188 78.8281 12.125 78.6719 12.0625C78.5312 11.9844 78.3438 11.9375 78.1094 11.9219H70.4219C69.5156 11.9062 68.7656 11.7188 68.1719 11.3594C67.5781 10.9844 67.1562 10.5547 66.9062 10.0703C66.6562 9.58594 66.5312 9.10156 66.5312 8.61719C66.5312 8.13281 66.6562 7.65625 66.9062 7.1875C67.1719 6.70312 67.5938 6.28906 68.1719 5.94531C68.7656 5.58594 69.5156 5.39062 70.4219 5.35938C70.5781 5.34375 70.6953 5.33594 70.7734 5.33594H80.1719C80.6094 5.33594 80.9766 5.46875 81.2734 5.73438C81.5859 5.98438 81.7422 6.29688 81.7422 6.67188ZM89.6469 15.9531C88.2719 15.9062 87.2328 15.5859 86.5297 14.9922C85.8266 14.3828 85.3187 13.7031 85.0062 12.9531C84.6937 12.1875 84.5375 11.4141 84.5375 10.6328C84.5375 9.82031 84.6859 9.03906 84.9828 8.28906C85.2953 7.52344 85.8031 6.84375 86.5062 6.25C87.225 5.64062 88.1312 5.32812 89.225 5.3125H98.1312C98.5687 5.3125 98.9359 5.46094 99.2328 5.75781C99.5453 6.03906 99.7016 6.38281 99.7016 6.78906C99.7016 7.21094 99.5453 7.57031 99.2328 7.86719C98.9359 8.14844 98.5687 8.28906 98.1312 8.28906H89.3656C89.0219 8.28906 88.7172 8.40625 88.4516 8.64062C88.2016 8.875 88.0141 9.17969 87.8891 9.55469C87.7797 9.92969 87.725 10.2969 87.725 10.6562C87.725 11.0469 87.7797 11.4297 87.8891 11.8047C88.0141 12.1797 88.2016 12.4844 88.4516 12.7188C88.7172 12.9375 89.0219 13.0547 89.3656 13.0703H98.1312C98.5687 13.0703 98.9359 13.2109 99.2328 13.4922C99.5453 13.7734 99.7016 14.1094 99.7016 14.5C99.7016 14.9062 99.5453 15.25 99.2328 15.5312C98.9359 15.8125 98.5687 15.9531 98.1312 15.9531H89.6469ZM99.4203 10.5859C99.4203 10.8828 99.2875 11.1406 99.0219 11.3594C98.7875 11.5625 98.4906 11.6641 98.1312 11.6641H90.4672C90.1078 11.6641 89.8031 11.5625 89.5531 11.3594C89.3031 11.1406 89.1781 10.8828 89.1781 10.5859C89.1781 10.3047 89.3031 10.0547 89.5531 9.83594C89.8031 9.63281 90.1078 9.53125 90.4672 9.53125H98.1312C98.4906 9.53125 98.7953 9.64062 99.0453 9.85938C99.2953 10.0625 99.4203 10.3047 99.4203 10.5859Z" fill="#E4E5EA"/>
</svg>
